<?xml version="1.0" standalone="no"?>
<!DOCTYPE svg PUBLIC "-//W3C//DTD SVG 20010904//EN"
 "http://www.w3.org/TR/2001/REC-SVG-20010904/DTD/svg10.dtd">
<svg version="1.0" xmlns="http://www.w3.org/2000/svg"
 width="99.000000pt" height="99.000000pt" viewBox="0 0 99.000000 99.000000"
 preserveAspectRatio="xMidYMid meet">
<metadata>
Created by potrace 1.14, written by Peter Selinger 2001-2017
</metadata>
<g transform="translate(0.000000,99.000000) scale(0.100000,-0.100000)"
fill="#000000" stroke="none">
<path d="M758 900 c-39 -21 -88 -77 -88 -101 0 -8 -9 0 -20 18 -33 55 -96 70
-141 34 -23 -19 -24 -19 -51 1 -30 21 -89 22 -96 1 -2 -9 9 -13 37 -13 73 0
74 -3 70 -362 -3 -297 -7 -343 -33 -360 -21 -14 -63 -8 -81 12 -20 22 -20 22
12 39 18 9 29 9 50 -3 16 -9 22 -15 13 -16 -9 0 -21 5 -27 11 -16 16 -56 -11
-41 -28 13 -16 60 -17 76 -1 16 16 16 128 0 128 -31 -1 -38 -16 -18 -38 12
-12 16 -22 11 -22 -6 0 -14 7 -19 15 -4 9 -18 17 -30 18 -12 1 -22 4 -22 8 0
4 -11 10 -24 13 -47 12 -37 59 17 79 9 4 9 7 0 17 -18 19 -58 -1 -75 -37 -33
-68 -133 -24 -114 51 6 24 9 26 46 20 51 -8 57 17 8 31 -64 19 -62 109 2 121
17 4 30 13 30 22 0 11 -8 13 -39 8 -41 -6 -51 3 -51 45 0 44 77 78 107 48 11
-11 33 -5 33 10 0 4 -14 14 -32 23 l-32 15 26 26 c30 29 48 35 48 14 0 -20 37
-50 50 -42 8 5 6 13 -6 26 -11 12 -17 34 -16 59 2 41 -16 56 -25 21 -2 -10
-20 -26 -40 -35 -21 -10 -39 -28 -46 -46 -6 -17 -23 -34 -40 -41 -16 -7 -36
-27 -45 -46 -14 -29 -14 -38 -3 -66 7 -18 13 -40 12 -49 -2 -23 -2 -83 0 -105
1 -10 -5 -32 -12 -50 -11 -28 -11 -37 3 -66 9 -19 29 -39 45 -46 15 -6 35 -26
43 -44 8 -18 29 -38 45 -45 17 -8 37 -27 44 -42 7 -16 21 -32 32 -35 10 -4 19
-11 19 -16 0 -18 56 -8 85 15 l29 24 32 -24 c17 -13 41 -24 53 -24 24 0 78 44
86 70 3 9 20 24 39 32 18 9 38 29 45 46 7 16 23 34 37 40 13 7 24 18 24 27 0
18 -5 19 -32 4 -29 -15 -67 -3 -78 27 -6 14 -25 31 -42 39 -22 10 -27 14 -14
15 11 0 36 -18 56 -40 40 -43 47 -46 83 -29 22 10 23 15 17 51 -5 24 -4 36 2
30 5 -5 10 -22 12 -38 5 -41 5 -41 20 -21 14 18 11 52 -6 74 -7 8 -6 24 1 45
8 23 8 41 0 66 -8 25 -8 37 0 45 6 6 11 19 11 29 0 12 14 24 40 34 22 9 40 22
40 30 0 18 -2 18 -45 -3 -30 -14 -42 -15 -79 -5 -23 6 -52 8 -64 5 -20 -5 -22
-1 -22 28 1 19 -2 50 -6 70 -9 56 19 107 73 131 52 23 90 18 133 -18 40 -34
53 -85 36 -135 -15 -42 -7 -59 15 -32 8 9 14 39 14 72 0 68 -23 106 -85 139
-51 27 -74 27 -122 2z m-146 -77 c22 -19 23 -62 3 -89 -19 -25 -19 -34 0 -34
8 0 20 9 27 20 7 11 17 20 22 20 5 0 6 -3 3 -6 -3 -4 -2 -14 3 -24 6 -11 5
-31 -1 -55 -13 -47 -3 -58 41 -45 47 14 72 4 65 -23 -6 -20 -5 -21 8 -4 19 23
30 22 17 -2 -8 -16 -17 -19 -45 -14 -28 4 -35 2 -35 -11 0 -9 7 -16 15 -16 12
0 13 -4 5 -19 -5 -11 -10 -32 -10 -47 0 -28 -25 -64 -44 -64 -6 0 0 7 12 16
26 18 29 60 8 90 -12 15 -17 16 -27 7 -10 -10 -9 -15 1 -28 16 -19 -5 -67 -49
-109 -33 -31 -31 -53 5 -67 31 -11 31 -45 2 -60 -46 -24 -46 -55 0 -38 15 6
34 17 42 24 19 17 43 5 35 -18 -4 -8 -14 -18 -23 -22 -14 -5 -13 -3 2 14 26
28 5 33 -26 6 -24 -20 -25 -24 -10 -28 11 -3 7 -5 -9 -6 -15 0 -39 9 -54 21
-26 20 -29 20 -40 5 -7 -9 -16 -17 -20 -17 -5 0 0 9 10 20 11 13 25 18 37 14
10 -3 18 0 18 6 0 6 11 16 25 22 32 15 32 24 -6 59 l-30 28 -39 -27 c-37 -25
-39 -30 -40 -78 0 -64 18 -91 48 -75 21 11 28 9 71 -16 2 -2 -4 -12 -14 -23
-23 -26 -69 -26 -95 0 -19 19 -20 33 -20 343 0 276 2 326 16 345 18 27 69 30
96 5z m188 -348 c0 -21 -40 -65 -60 -65 -11 0 -24 -8 -30 -17 -8 -12 -10 -13
-7 -3 2 8 20 23 40 33 32 15 37 22 37 50 0 18 -3 37 -7 43 -5 5 0 1 10 -9 9
-11 17 -25 17 -32z m-40 -105 c-8 -5 -19 -10 -25 -10 -5 0 -3 5 5 10 8 5 20
10 25 10 6 0 3 -5 -5 -10z m-425 -151 c11 -2 26 0 33 4 6 5 12 4 12 -1 0 -11
-45 -32 -71 -32 -11 0 -32 12 -47 27 -25 25 -25 27 -7 33 13 5 27 2 40 -10 11
-10 29 -20 40 -21z"/>
<path d="M520 763 c0 -5 12 -19 26 -32 18 -18 28 -21 36 -13 9 9 7 17 -7 32
-17 19 -55 28 -55 13z"/>
<path d="M554 649 c-7 -12 12 -29 33 -29 7 0 15 -11 19 -25 7 -28 27 -29 32
-2 4 19 -40 67 -62 67 -8 0 -18 -5 -22 -11z"/>
<path d="M530 529 c0 -6 9 -13 21 -16 11 -3 25 -16 30 -29 4 -13 13 -24 19
-24 17 0 11 46 -8 63 -21 19 -62 23 -62 6z"/>
<path d="M510 162 c0 -15 36 -42 56 -42 10 0 26 5 34 10 13 8 13 11 -2 26 -14
15 -19 15 -33 4 -13 -11 -21 -11 -36 -2 -10 7 -19 8 -19 4z"/>
<path d="M285 210 c3 -5 16 -10 28 -10 18 0 19 2 7 10 -20 13 -43 13 -35 0z"/>
<path d="M782 844 c-12 -8 -22 -24 -22 -35 0 -25 16 -24 30 2 15 27 54 22 58
-8 3 -17 -3 -26 -23 -33 -22 -8 -26 -15 -23 -42 3 -35 21 -41 26 -10 2 11 14
30 28 43 29 27 31 52 4 79 -24 24 -48 25 -78 4z"/>
<path d="M396 754 c-18 -18 -20 -30 -7 -39 9 -5 61 36 61 49 0 12 -39 6 -54
-10z"/>
<path d="M810 670 c0 -5 5 -10 10 -10 6 0 10 5 10 10 0 6 -4 10 -10 10 -5 0
-10 -4 -10 -10z"/>
<path d="M356 639 c-27 -21 -34 -53 -15 -64 6 -4 13 3 16 15 3 12 16 26 29 31
26 9 33 39 10 39 -7 0 -25 -9 -40 -21z"/>
<path d="M262 518 c-24 -24 -9 -98 19 -98 3 0 6 25 6 55 0 56 -4 64 -25 43z"/>
<path d="M354 479 c-10 -17 30 -64 59 -67 33 -4 35 15 3 27 -13 5 -26 19 -29
30 -6 23 -22 28 -33 10z"/>
</g>
</svg>
